<?xml version="1.0" encoding="UTF-8"?>
<svg id="Layer_1" data-name="Layer 1" xmlns="http://www.w3.org/2000/svg" viewBox="0 0 1617.62 420.4">
  <path d="M76.8,197.24c0-12,12.6-19.8,36-19.8,24.6,0,55.8,9,87.6,35.4l38.4-55.8c-26.4-21.6-65.4-45.6-124.8-45.6-67.8,0-109.2,31.8-109.2,87,0,109.8,163.2,78,163.2,129.6,0,17.4-18.6,25.8-43.2,25.8-29.4,0-61.2-12-86.4-36L0,374.24c18.6,16.8,59.4,45.6,123,45.6,68.4,0,117-33,117-94.2,0-112.2-163.2-84.6-163.2-128.4Z" style="fill: #fff; stroke-width: 0px;"/>
  <path d="M1022.68,129.94l-17.01-6.47-13.3,33.57-17.01-6.46,13.3-33.57-17.01-6.46-13.3,33.57-17.01-6.47-13.3,33.58c-5.39,13.61-3.61,28.19,3.53,39.72l-16.61,41.93-1.23,2.82-25.72,62.93c-12.42,31.28-16.85,46.05-23.07,46.05-6.9,0-5.63-27.31-5.36-31.93.03-.49.04-.97.04-1.46v-130.87c0-55.68-21.67-86.56-52.62-86.56-43.33,0-65,33.06-89.76,98.31l-43.33,107.01c-12.38,31.32-16.8,46.11-22.99,46.11-6.88,0-5.61-27.34-5.35-31.96.03-.49.04-.97.04-1.46v-191.13c0-14.75-12.28-26.72-27.42-26.72h-.16c-15.14,0-27.42,11.96-27.42,26.72v190.66c0,54.89,21.29,86,52.34,86,43.91,0,65.65-33.28,90.48-99.4l48.35-117.98h-1.12c8.87-22.16,12.86-32.59,18.18-32.59,7.54,0,5.77,32.59,5.77,32.59v132.08c0,55.18,21.29,86.46,52.34,86.46,43.91,0,65.64-33.45,90.48-99.93l18.16-44.67.46-1.65,16.46-41.57c13.47-3.67,25.1-13.35,30.58-27.17l13.3-33.57-17.01-6.46,13.29-33.58Z" style="fill: #ffec00; stroke-width: 0px;"/>
  <rect x="1045.62" width="72" height="420" style="fill: #fff; stroke-width: 0px;"/>
  <path d="M415.77,110.63c-93,0-155.4,61.8-155.4,154.2s62.4,155.4,155.4,155.4,154.8-62.4,154.8-155.4-61.8-154.2-154.8-154.2ZM415.17,354.24c-49.8,0-82.8-33-82.8-88.8s33-88.8,82.8-88.8,83.4,33,83.4,88.8-33,88.8-83.4,88.8Z" style="fill: #fff; stroke-width: 0px;"/>
  <path d="M1293.22,110.8c-92.4,0-154.8,61.8-154.8,154.2s62.4,155.4,149.4,155.4c43.8,0,74.4-15.6,88.8-34.2v28.8h72v-148.8c0-93-62.4-155.4-155.4-155.4ZM1293.82,354.4c-50.4,0-83.4-33-83.4-88.8s33-88.8,83.4-88.8,82.8,33,82.8,88.8-33,88.8-82.8,88.8Z" style="fill: #fff; stroke-width: 0px;"/>
  <path d="M1468.62,252v168h72v-168c0-48,28.87-71.4,77-71.4v-66c-91.32,0-149,46.2-149,137.4Z" style="fill: #fff; stroke-width: 0px;"/>
</svg>